<?xml version="1.0" encoding="UTF-8" standalone="no"?>
<svg
   xmlns:dc="http://purl.org/dc/elements/1.1/"
   xmlns:cc="http://creativecommons.org/ns#"
   xmlns:rdf="http://www.w3.org/1999/02/22-rdf-syntax-ns#"
   xmlns:svg="http://www.w3.org/2000/svg"
   xmlns="http://www.w3.org/2000/svg"
   xmlns:sodipodi="http://sodipodi.sourceforge.net/DTD/sodipodi-0.dtd"
   xmlns:inkscape="http://www.inkscape.org/namespaces/inkscape"
   width="210mm"
   height="297mm"
   viewBox="0 0 210 297"
   version="1.1"
   id="svg8"
   inkscape:version="1.0.2 (e86c870879, 2021-01-15)"
   sodipodi:docname="avatar-inkscape.svg">
  <defs
     id="defs2" />
  <sodipodi:namedview
     id="base"
     pagecolor="#ffffff"
     bordercolor="#666666"
     borderopacity="1.0"
     inkscape:pageopacity="0.0"
     inkscape:pageshadow="2"
     inkscape:zoom="0.98994949"
     inkscape:cx="122.42719"
     inkscape:cy="190.11749"
     inkscape:document-units="mm"
     inkscape:current-layer="g921"
     inkscape:document-rotation="0"
     showgrid="false"
     inkscape:window-width="1917"
     inkscape:window-height="1213"
     inkscape:window-x="26"
     inkscape:window-y="23"
     inkscape:window-maximized="0" />
  <metadata
     id="metadata5">
    <rdf:RDF>
      <cc:Work
         rdf:about="">
        <dc:format>image/svg+xml</dc:format>
        <dc:type
           rdf:resource="http://purl.org/dc/dcmitype/StillImage" />
        <dc:title></dc:title>
      </cc:Work>
    </rdf:RDF>
  </metadata>
  <g
     inkscape:label="Layer 1"
     inkscape:groupmode="layer"
     id="layer1">
    <g
       id="g921"
       transform="matrix(0.73818901,0,0,0.73818903,-21.722836,-28.678668)">
      <path
         id="path937"
         style="fill:#f3c4b7;stroke-width:0.264583"
         d="m 29.4272,106.58336 c 0,-22.577776 0,-45.155551 0,-67.733327 45.155553,0 90.31111,0 135.46666,0 0,45.155552 0,90.311107 0,135.466657 -45.15555,0 -90.311107,0 -135.46666,0 0,-22.57778 0,-45.15555 0,-67.73333 z" />
      <path
         id="path935"
         style="fill:#eaad9e;stroke-width:0.264583"
         d="m 29.4272,106.58336 c 0,-22.577776 0,-45.155551 0,-67.733327 45.155553,0 90.31111,0 135.46666,0 0,45.155552 0,90.311107 0,135.466657 -45.15555,0 -90.311107,0 -135.46666,0 0,-22.57778 0,-45.15555 0,-67.73333 z m 74.68588,30.8474 c 13.65385,-3.25343 23.60392,-16.97776 22.67076,-30.95816 1.01281,-3.98834 -0.91687,-13.0275 -3.69414,-13.006482 0.69738,3.470898 -3.39904,4.028882 -2.11667,7.634032 1.33744,6.60748 -4.40589,11.7679 -10.84489,10.20457 -3.37561,-0.29799 -5.98002,-0.0911 -6.84604,3.77688 -4.531137,5.19023 -12.823895,1.79465 -14.552982,-3.70416 -4.779611,-0.50341 -10.804984,1.42099 -14.080573,-3.10834 -2.548584,-3.04403 -0.04444,-8.313931 -2.008497,-10.910627 -2.529083,-1.785954 -0.317018,-7.017663 -3.381706,-2.06081 -3.288362,5.711597 -1.491834,13.440187 -0.943571,19.837007 3.507781,15.52731 20.116779,26.55351 35.798309,22.29609 z m -7.354791,-9.1702 c -5.093783,1.31752 -6.28606,-6.35631 -0.768416,-4.3351 3.965921,3.26442 12.465207,-6.26368 12.300237,0.57097 -2.55779,3.47799 -7.50169,4.26274 -11.531821,3.76413 z m 2.791439,-14.33501 c 5.352262,-3.56397 -3.266847,-8.63399 -0.786151,-14.100048 1.006061,-2.680766 -1.492142,-3.966489 -3.154323,-2.648638 -0.344289,4.408186 0.953468,9.758436 -2.966433,12.907766 -1.082256,3.41012 4.452124,5.51043 6.906907,3.84092 z m -9.760696,-8.37658 c 3.070283,-6.311251 -0.142428,-13.391911 -7.947488,-10.916405 -4.159158,-0.684072 -3.364961,2.816637 -3.334138,5.558445 -2.063122,8.42153 6.337125,5.70662 11.281626,5.35796 z m -6.899687,-3.41782 c -6.488118,-4.302461 5.797557,-10.161961 4.858568,-2.13073 -0.602391,1.9349 -3.003324,3.36137 -4.858568,2.13073 z m 32.299685,3.41767 c 1.25373,-3.09209 0.36903,-6.835594 0.62462,-10.210248 -3.93285,-1.007665 -13.20063,-2.490682 -12.0084,3.994748 -1.87701,9.12159 5.34488,6.80678 11.38378,6.2155 z m -6.89969,-3.41767 c -6.65577,-4.634965 6.61477,-9.904888 4.70323,-1.729 -0.79561,1.70853 -2.99045,2.88243 -4.70323,1.729 z M 73.669939,91.498354 c 6.852083,-3.496332 14.497779,-2.25255 21.471156,-0.177225 7.192585,0.76603 13.978375,-4.185389 21.169895,-1.27262 2.55612,0.533764 8.96212,3.997489 4.19721,-0.579354 -3.70402,-2.375644 -7.4406,-8.322482 -9.92871,-9.91662 -6.15002,5.898031 -15.242025,3.534293 -22.896208,3.971843 -4.336636,-0.959273 -6.617361,-3.092981 -9.373719,1.85961 -0.63237,0.36041 -10.70649,9.364572 -4.639624,6.114366 z" />
      <path
         id="path933"
         style="fill:#fdca64;stroke-width:0.264583"
         d="m 29.4272,106.58336 c 0,-22.577776 0,-45.155551 0,-67.733327 45.155553,0 90.31111,0 135.46666,0 0,45.155552 0,90.311107 0,135.466657 -45.15555,0 -90.311107,0 -135.46666,0 0,-22.57778 0,-45.15555 0,-67.73333 z m 106.02319,56.42603 c -0.43301,-0.26317 0.35727,3.51598 0,0 z m -76.472056,-0.5328 c -0.412293,0.0166 0.244206,2.34158 0,0 z m 76.192836,-1.45521 c -0.45897,-0.0856 0.27775,1.76796 0,0 z m -75.929899,0.0165 c -0.453628,-0.45492 0.228422,1.47917 0,0 z m 75.670829,-1.05834 c -0.45365,-0.4549 0.22844,1.47917 0,0 z m -33.45229,-1.73419 c 7.0521,-2.45099 5.03507,-10.96734 7.00332,-15.86715 -0.88431,-1.40715 -1.86949,-6.23967 1.01559,-6.65892 7.42118,-3.54942 13.36086,-10.10961 15.98383,-17.92549 6.40991,-0.97203 12.17378,-7.79887 8.72678,-14.33563 -2.42723,-4.840612 -9.71889,-4.467708 -7.64055,-11.385659 0.0171,-3.997127 -4.04678,-12.781867 -5.04299,-12.925704 1.72813,2.796807 8.05363,14.350573 0.42452,11.03936 -3.93458,-3.219784 -8.52913,-7.767688 -11.11661,-11.044645 -5.6515,5.772264 -14.067814,4.053275 -21.296638,4.393085 -4.728009,0.823088 -7.93881,-5.052498 -10.735694,0.981059 -1.751074,1.968873 -11.095667,10.502675 -9.894577,3.653369 -0.153623,-2.472482 6.219163,-13.229084 1.906879,-6.029675 -4.93743,4.810481 0.02342,15.027136 -6.644067,17.209281 -6.851334,3.164259 -6.479539,14.184399 0.577904,16.888669 5.077165,-0.26116 4.93218,4.85717 7.1875,8.10121 3.461394,5.48049 8.724439,9.67489 14.66219,12.20148 -0.07822,4.29143 -0.466348,6.51343 0.305313,10.572 -1.230746,7.09888 6.010374,14.01723 13.010294,11.67347 l 0.827256,-0.24364 z m -5.866354,-30.35183 c -5.884215,-0.35468 -2.380788,-6.04818 1.802856,-3.61759 3.444958,2.18665 11.960388,-6.32974 10.435668,0.56833 -3.04713,3.26305 -8.063556,3.77708 -12.238524,3.04926 z m -17.35348,-17.16314 c -5.622903,-1.90792 -4.537778,-8.41952 -4.627359,-13.129301 -3.539952,-1.135442 -2.641297,-6.139477 0.997094,-6.295203 6.94629,-3.376014 14.444673,-1.09473 21.472203,0.191994 7.107166,0.04752 14.024106,-3.787385 21.178076,-1.074282 3.72738,0.04168 8.31699,4.078361 3.99018,6.899774 -1.36792,2.447557 0.0823,6.464888 -1.00797,9.332088 -2.98644,6.45786 -12.1053,4.44829 -17.75814,3.6504 -4.729358,-2.90743 -3.134626,-8.96268 -3.603692,-13.644402 -2.919558,-0.641614 -4.139775,0.465321 -3.537995,3.447012 0.906505,5.51499 -2.022536,12.29342 -8.674195,10.94293 -2.805216,-0.0426 -5.6506,0.13312 -8.428202,-0.32101 z m 11.763662,-5.38107 c 0.387152,-2.79226 1.298902,-7.840863 -0.325878,-9.959973 -3.113425,-0.8016 -10.197652,-2.405648 -11.302648,1.029196 0.461226,3.074655 -1.334158,7.796927 1.479898,9.635627 3.198065,0 6.39613,0 9.594195,0 0.184811,-0.23495 0.369622,-0.4699 0.554433,-0.70485 z m -7.818524,-3.8989 c -4.943115,-6.712316 9.497205,-6.762526 4.550833,0 -1.02424,1.27425 -3.526593,1.27425 -4.550833,0 z m 33.212466,3.90661 c 0.6894,-2.99881 0.93048,-7.452574 0.17776,-10.185171 -3.49002,-0.731182 -9.64094,-1.713862 -11.68018,1.197523 0.41953,3.091623 -1.48484,7.829968 1.35985,9.684828 3.19807,0 6.39613,0 9.5942,0 0.18279,-0.23239 0.36558,-0.46479 0.54837,-0.69718 z m -7.81247,-3.90661 c -4.9382,-6.736612 9.48904,-6.736612 4.55084,0 -1.02425,1.27425 -3.5266,1.27425 -4.55084,0 z m 26.64938,56.54807 c -0.96393,-1.2109 0.71817,1.95212 0,0 z m -72.963251,-2.07037 c 1.707413,-4.2977 -2.995643,5.67115 0,0 z m 72.282211,0.42146 c -1.7495,-2.88502 1.27592,3.174 0,0 z m -1.12223,-1.89442 c -3.04041,-4.16879 1.25731,2.63161 0,0 z m -65.433189,-5.11919 c 2.601395,-2.66304 -8.328463,7.6621 -2.061361,1.90136 0.673774,-0.64758 1.34029,-1.30551 2.061361,-1.90136 z m 62.970829,2.09424 c -3.82653,-3.60112 3.2827,3.62878 0,0 z m -1.99172,-1.70461 c -1.88101,-1.68267 -5.98757,-3.39377 -1.53535,-0.84553 0.0231,-0.19924 2.90246,2.3634 1.53535,0.84553 z m -57.651981,-2.3325 c -3.180437,1.07559 -2.826043,1.91433 0,0 z m 1.170789,-0.32852 c 0.903377,-0.92168 -2.134956,0.98626 0,0 z m 51.858332,0 c -2.06461,-0.94931 0.8158,0.88639 0,0 z m -49.019573,-0.9536 c -0.974062,-0.30008 -0.486066,0.46075 0,0 z m 46.302083,0 c -0.97406,-0.30009 -0.48607,0.46075 0,0 z m -43.187717,-0.89848 c 1.195073,-0.78355 -3.023587,0.78658 0,0 z m 40.216667,0 c -2.84099,-0.77438 1.05059,0.78949 0,0 z m -36.777084,-1.05834 c 1.195074,-0.78356 -3.023593,0.7866 0,0 z m 33.662714,0.10473 c -0.97407,-0.30009 -0.48605,0.46075 0,0 z m -30.691663,-1.05833 c -0.974084,-0.30008 -0.486036,0.46075 0,0 z m 27.252083,0 c -0.97408,-0.30008 -0.48604,0.46075 0,0 z M 73.761506,77.830789 c 1.769669,-2.941499 -2.766217,3.445013 0,0 z m 46.946944,-0.178292 c -1.41222,-1.650842 -1.2638,-0.734984 0,0 z M 76.258448,74.965656 c 5.400675,-5.84483 -5.820305,5.632577 0,0 z m 43.391662,1.380781 c -2.51984,-2.585661 -4.31073,-4.166449 -0.83919,-0.656932 l 0.52527,0.516672 z m -4.05154,-3.842654 c -2.58504,-3.921153 1.67018,2.91401 0,0 z m -36.660539,0.01448 c 0.913272,-1.299905 -1.624894,1.580245 0,0 z m 36.132939,-3.963715 c -0.45407,-0.307582 0.32825,2.175617 0,0 z M 88.357623,66.736012 c -0.974069,-0.300077 -0.486057,0.460787 0,0 z m 2.25447,-0.279959 c -1.646444,-0.262468 -0.02052,0.457791 0,0 z m 24.191677,-0.403547 c -0.45365,-0.454915 0.22843,1.479174 0,0 z M 93.257926,66.19147 c -1.646449,-0.262468 -0.02052,0.457791 0,0 z m 2.645833,-0.264583 c -1.646449,-0.262468 -0.02051,0.457791 0,0 z m 2.38125,-0.264584 c -1.646444,-0.262468 -0.02052,0.457791 0,0 z m 2.645831,-0.264583 c -1.646454,-0.262462 -0.0205,0.457788 0,0 z m 2.64584,-0.264583 c -1.64644,-0.262462 -0.0205,0.457785 0,0 z m 2.64583,-0.264584 c -1.64644,-0.262462 -0.0205,0.457785 0,0 z m 2.64583,-0.264583 c -1.64644,-0.262462 -0.0205,0.457785 0,0 z m 2.64584,-0.264583 c -1.64644,-0.262462 -0.0205,0.457785 0,0 z" />
      <path
         id="path931"
         style="fill:#aa8ca1;stroke-width:0.264583"
         d="m 58.900721,173.63978 c -0.335297,-7.70664 -0.500077,-16.62161 5.808194,-22.21703 5.65547,-5.34871 13.854137,-6.25214 20.964768,-8.63986 2.147041,4.11552 0.302812,14.24956 8.227169,15.93227 7.124758,2.5807 14.802178,-4.24624 13.539868,-11.59727 -1.16787,-8.99114 10.09963,-0.39876 14.75997,-0.1583 8.62488,2.55657 13.91987,11.58648 13.23138,20.34875 0.6596,4.0553 0.72527,8.54278 -4.39635,7.00835 -23.98837,0 -47.97674,0 -71.965108,0 l -0.09327,-0.37163 z m 36.692735,-45.74622 c -5.884215,-0.35468 -2.380788,-6.04818 1.802856,-3.61759 3.444958,2.18665 11.960388,-6.32974 10.435668,0.56833 -3.04713,3.26305 -8.063556,3.77708 -12.238524,3.04926 z m -17.35348,-17.16314 c -5.622903,-1.90792 -4.537778,-8.41952 -4.627359,-13.129301 -3.539952,-1.135442 -2.641297,-6.139477 0.997094,-6.295203 6.94629,-3.376014 14.444673,-1.09473 21.472203,0.191994 7.107166,0.04752 14.024106,-3.787385 21.178076,-1.074282 3.72738,0.04168 8.31699,4.078361 3.99018,6.899774 -1.36792,2.447557 0.0823,6.464888 -1.00797,9.332088 -2.98644,6.45786 -12.1053,4.44829 -17.75814,3.6504 -4.729358,-2.90743 -3.134626,-8.96268 -3.603692,-13.644402 -2.919558,-0.641614 -4.139775,0.465321 -3.537995,3.447012 0.906505,5.51499 -2.022536,12.29342 -8.674195,10.94293 -2.805216,-0.0426 -5.6506,0.13312 -8.428202,-0.32101 z m 11.763662,-5.38107 c 0.387152,-2.79226 1.298902,-7.840863 -0.325878,-9.959973 -3.113425,-0.8016 -10.197652,-2.405648 -11.302648,1.029196 0.461226,3.074655 -1.334158,7.796927 1.479898,9.635627 3.198065,0 6.39613,0 9.594195,0 0.184811,-0.23495 0.369622,-0.4699 0.554433,-0.70485 z m -7.818524,-3.8989 c -4.943115,-6.712316 9.497205,-6.762526 4.550833,0 -1.02424,1.27425 -3.526593,1.27425 -4.550833,0 z m 33.212466,3.90661 c 0.6894,-2.99883 0.93047,-7.452598 0.17776,-10.185211 -3.49002,-0.731182 -9.64094,-1.713862 -11.68018,1.197523 0.41953,3.091623 -1.48484,7.829968 1.35985,9.684828 3.19807,0 6.39613,0 9.5942,0 0.18279,-0.23238 0.36558,-0.46476 0.54837,-0.69714 z m -7.81247,-3.90661 c -4.9382,-6.736612 9.48904,-6.736612 4.55084,0 -1.02425,1.27425 -3.5266,1.27425 -4.55084,0 z M 68.713352,89.197321 c 1.305815,-8.638621 7.665408,-15.304724 14.642504,-19.98655 5.60638,-4.11559 13.331526,-2.63046 19.872814,-3.972122 3.34943,0.932153 10.88871,-3.807422 11.41537,1.148943 0.27869,2.822629 -0.64791,6.061148 2.36856,7.656403 4.70866,4.34423 8.09648,10.233757 8.76945,16.664369 -5.57052,0.432873 -8.95755,-5.681545 -12.79305,-8.936082 -2.14143,-6.529702 -7.4675,3.673118 -12.54353,1.597799 -5.915619,-0.49186 -12.929873,1.942878 -18.004226,-1.925252 -3.802607,1.561624 -7.347382,8.432766 -12.220093,9.263535 -1.535059,0.123692 -1.99582,0.171203 -1.507799,-1.511043 z" />
      <path
         id="path929"
         style="fill:#8e75a5;stroke-width:0.264583"
         d="m 59.13293,168.03284 c -0.906668,-8.59742 3.786876,-17.87051 12.328028,-20.58203 4.664571,-0.82315 11.437843,-5.38469 15.011193,-3.63668 -0.774311,6.50341 1.656551,14.71768 9.22645,15.53036 7.391329,1.28439 13.368689,-6.29504 12.032309,-13.29187 -0.058,-6.94819 9.84161,1.03162 14.02511,1.01823 9.10594,2.33648 14.41893,12.0744 13.43526,21.09428 -0.46809,1.79967 1.14022,5.63207 -0.63556,6.15156 -25.1834,0 -50.366812,0 -75.550221,0 0.04248,-2.09462 0.08495,-4.18923 0.127431,-6.28385 z m 36.075615,-40.42951 c -6.061607,-1.36095 -0.231013,-5.10144 3.097562,-3.02573 3.012493,1.22269 11.811513,-5.92571 8.920513,0.61664 -3.23057,2.91414 -7.93972,3.23339 -12.018075,2.40909 z m -17.50076,-17.28169 c -5.996467,-3.37123 -2.580197,-11.541465 -5.947254,-16.05277 0.923878,-4.160332 8.368362,-4.242366 12.170833,-4.460674 6.515907,-0.290195 12.886332,3.987569 19.359156,0.974587 6.33186,-2.058404 13.42555,-1.069566 19.27001,2.014445 -0.34563,4.817869 -3.23744,8.393512 -2.56647,13.889792 -3.32242,6.09228 -13.5527,4.98894 -18.79522,2.30645 -2.931914,-3.36374 -1.586656,-8.20987 -2.053935,-12.331982 -2.311329,-0.09704 -5.003498,-0.585638 -4.043224,2.681069 0.460578,5.095873 -0.74503,12.473243 -7.556886,11.450093 -3.259204,-0.12728 -6.666604,0.40387 -9.83701,-0.47101 z m 12.228096,-4.64096 c 1.593402,-1.55119 0.360834,-4.39975 0.742358,-6.507293 1.008156,-3.458109 -1.372348,-4.715355 -4.59789,-4.83907 -6.336724,-1.717505 -9.478511,2.393285 -7.879934,8.266963 -0.957024,5.93121 7.8432,3.30604 11.223983,3.44193 l 0.511487,-0.36253 z M 83.426978,101.998 c -6.712623,-3.666839 4.994213,-9.34045 3.951276,-2.092803 -0.422784,1.656213 -2.325527,2.737323 -3.951276,2.092803 z m 31.908902,3.6828 c 1.80041,-2.38376 0.22812,-6.397715 0.81761,-9.298393 -2.30805,-3.579705 -8.7664,-2.1338 -12.5107,-0.779252 0,3.146472 0,6.292945 0,9.439415 2.77999,2.30825 8.48799,1.40666 11.69309,0.63823 z m -6.5089,-3.6828 c -6.71262,-3.666836 4.99421,-9.340451 3.95127,-2.092803 -0.42278,1.656213 -2.32552,2.737323 -3.95127,2.092803 z M 85.915739,83.068356 c -2.53606,-1.789133 -4.965575,-2.739027 -8.152688,-2.177267 -3.653784,0.540184 -7.028698,-0.223496 -2.954885,-3.800598 4.842723,-5.093864 10.443995,-10.779698 18.021025,-10.502616 7.028737,-0.613454 14.043459,-1.760328 21.091999,-1.922435 1.71939,2.813154 -1.00444,7.154168 2.30729,9.051484 4.02066,3.239664 7.88811,8.82775 0.0343,7.201853 -3.93339,1.484645 -4.73919,-4.882315 -7.99205,-0.218648 -5.62994,3.861213 -12.852618,1.980212 -19.243041,2.50817 -1.037807,-0.02338 -2.080118,-0.0025 -3.11199,-0.139943 z" />
      <path
         id="path927"
         style="fill:#5944fd;stroke-width:0.264583"
         d="m 59.253162,172.26617 c 0.09752,-6.7711 -0.398809,-14.37738 4.78312,-19.61053 5.28206,-6.14411 13.967659,-6.71217 21.135404,-9.37084 2.354974,3.26969 0.124592,12.3564 6.498566,14.86531 6.60632,4.19144 16.444798,-1.01029 16.194978,-8.97922 -0.5554,-4.49986 0.63701,-7.67259 5.42058,-4.65903 6.97136,2.11479 15.14624,3.87562 18.94714,10.83312 3.68878,5.65123 2.35884,12.61298 2.91255,18.97171 -25.31887,0 -50.637733,0 -75.9566,0 0.02142,-0.68351 0.04284,-1.36701 0.06426,-2.05052 z m 36.700291,-44.62162 c -5.210042,0.47485 -3.347258,-5.7651 1.057702,-3.06634 3.298205,2.1993 12.774125,-6.08975 10.234535,0.56822 -3.10219,2.67273 -7.392689,3.14645 -11.292237,2.49812 z M 77.564479,110.08909 c -4.882518,-2.35742 -3.473597,-8.10717 -3.687305,-12.494921 -3.845706,-1.002562 -2.025578,-6.347998 1.633497,-6.297948 7.117699,-3.541318 14.447569,0.0023 21.649831,0.470476 7.202258,-0.468198 14.532128,-4.011794 21.649828,-0.470476 3.66451,-0.04713 5.48936,5.303198 1.63352,6.297948 -0.0829,4.682221 1.0305,11.162871 -4.68569,12.939541 -5.63022,0.18068 -15.20587,2.33516 -16.338644,-5.5313 -0.816906,-2.44801 0.870774,-7.344829 -1.040926,-8.605505 -2.890141,-0.692149 -3.828807,0.622136 -3.298188,3.447089 1.255796,6.115496 -2.826814,12.675016 -9.684871,10.965586 -2.589773,-0.16841 -5.429908,0.5002 -7.831052,-0.72049 z m 12.489137,-4.27556 c 1.913067,-5.15043 1.588933,-13.571593 -6.287374,-11.612273 -7.604352,-2.530336 -7.434367,10.457773 -3.103391,12.092013 3.086153,-0.15873 6.461161,0.54065 9.390765,-0.47974 z m -6.978822,-4.14226 c -6.010876,-5.387426 7.859961,-7.164628 3.316746,-0.43557 -0.843406,0.83263 -2.276235,1.12357 -3.316746,0.43557 z m 32.378816,4.14224 c 1.66709,-5.0702 2.08242,-14.245111 -6.2891,-11.574591 -7.93857,-2.30113 -8.21656,14.369931 -0.47384,12.083311 2.20844,-0.21405 4.69688,0.43462 6.76294,-0.50872 z m -6.97882,-4.14224 c -6.01088,-5.38743 7.85997,-7.164626 3.31675,-0.43557 -0.8434,0.83263 -2.27624,1.12356 -3.31675,0.43557 z M 85.781735,82.802183 c -4.727105,-0.854297 -5.49151,-8.000972 -6.46169,-9.745224 4.593973,-5.212877 11.167626,-6.634733 17.83638,-6.758458 5.293475,0.4171 13.133665,-3.199159 17.003215,-0.211239 -0.25309,5.116717 2.81571,8.219578 -2.21194,11.376215 -4.54878,5.311127 -11.61434,5.947052 -18.1397,5.486004 -2.674544,-0.01185 -5.358667,0.07199 -8.026265,-0.147298 z" />
      <path
         id="path925"
         style="fill:#675d95;stroke-width:0.264583"
         d="m 95.953453,127.64455 c -5.210042,0.47485 -3.347258,-5.7651 1.057702,-3.06634 3.298205,2.1993 12.774125,-6.08975 10.234535,0.56822 -3.10219,2.67273 -7.392689,3.14645 -11.292237,2.49812 z M 77.564479,110.08909 c -4.882518,-2.35742 -3.473597,-8.10717 -3.687305,-12.494921 -3.845706,-1.002562 -2.025578,-6.347998 1.633497,-6.297948 7.117699,-3.541318 14.447569,0.0023 21.649831,0.470476 7.202258,-0.468198 14.532128,-4.011794 21.649828,-0.470476 3.66451,-0.04713 5.48936,5.303198 1.63352,6.297948 -0.0829,4.682221 1.0305,11.162871 -4.68569,12.939541 -5.63022,0.18068 -15.20587,2.33516 -16.338644,-5.5313 -0.816906,-2.44801 0.870774,-7.344829 -1.040926,-8.605505 -2.890141,-0.692149 -3.828807,0.622136 -3.298188,3.447089 1.255796,6.115496 -2.826814,12.675016 -9.684871,10.965586 -2.589773,-0.16841 -5.429908,0.5002 -7.831052,-0.72049 z m 12.489137,-4.27556 c 1.913067,-5.15043 1.588933,-13.571593 -6.287374,-11.612273 -7.604352,-2.530336 -7.434367,10.457773 -3.103391,12.092013 3.086153,-0.15873 6.461161,0.54065 9.390765,-0.47974 z m -6.978822,-4.14226 c -6.010876,-5.387426 7.859961,-7.164628 3.316746,-0.43557 -0.843406,0.83263 -2.276235,1.12357 -3.316746,0.43557 z m 32.378816,4.14224 c 1.66709,-5.0702 2.08242,-14.245111 -6.2891,-11.574591 -7.93857,-2.30113 -8.21656,14.369931 -0.47384,12.083311 2.20844,-0.21405 4.69688,0.43462 6.76294,-0.50872 z m -6.97882,-4.14224 c -6.01088,-5.38743 7.85997,-7.164626 3.31675,-0.43557 -0.8434,0.83263 -2.27624,1.12356 -3.31675,0.43557 z M 85.781735,82.802183 c -4.727105,-0.854297 -5.49151,-8.000972 -6.46169,-9.745224 4.593973,-5.212877 11.167626,-6.634733 17.83638,-6.758458 5.293475,0.4171 13.133665,-3.199159 17.003215,-0.211239 -0.25309,5.116717 2.81571,8.219578 -2.21194,11.376215 -4.54878,5.311127 -11.61434,5.947052 -18.1397,5.486004 -2.674544,-0.01185 -5.358667,0.07199 -8.026265,-0.147298 z" />
      <path
         id="path923"
         style="fill:#2a1449;stroke-width:0.264583"
         d="m 96.102197,127.46846 c -5.716061,-0.41998 -2.425414,-4.82378 1.69092,-2.68411 3.160463,1.6396 12.449113,-5.87805 8.828703,0.60017 -2.99526,2.18192 -6.928647,2.7742 -10.519623,2.08394 z M 77.978239,110.18465 c -5.099709,-2.23571 -3.537677,-8.26753 -3.96875,-12.726271 -4.122906,-2.048074 -1.459374,-6.189602 2.286201,-6.290916 6.953568,-2.857941 13.944681,0.346842 20.86484,0.863817 6.92016,-0.516973 13.91127,-3.721759 20.86484,-0.863816 3.72495,0.114832 6.40784,4.237859 2.2862,6.290915 -0.43851,4.465981 1.14147,10.554891 -4.0264,12.736951 -5.71636,0.26927 -15.97488,2.6133 -16.694193,-5.70049 -0.06665,-3.26915 1.149893,-11.250661 -4.533702,-7.898986 0.503821,6.406546 -0.546302,16.025726 -9.545567,13.962936 -2.504756,-0.0349 -5.062594,0.0956 -7.533469,-0.37414 z m 11.611768,-3.8545 c 3.758595,-5.02406 1.580029,-14.526774 -6.392298,-12.354813 -7.34084,-2.208866 -7.732706,13.120313 -1.36752,12.548443 2.581689,0.0253 5.195195,0.14417 7.759818,-0.19363 z m 25.400003,0 c 3.67349,-5.17342 1.8522,-15.208302 -6.58194,-12.28814 -6.98179,-1.443975 -7.5327,13.05166 -1.17788,12.48177 2.58169,0.0253 5.19519,0.14417 7.75982,-0.19363 z" />
    </g>
  </g>
</svg>
