<?xml version="1.0" encoding="UTF-8"?>
<svg width="210mm" height="297mm" version="1.1" viewBox="0 0 210 297" xmlns="http://www.w3.org/2000/svg">
 <g transform="matrix(.73819 0 0 .73819 -21.723 -28.679)" stroke-width=".26458">
  <path d="m29.427 106.58v-67.733h135.47v135.47h-135.47v-67.733z" fill="#f3c4b7"/>
  <path d="m29.427 106.58v-67.733h135.47v135.47h-135.47v-67.733zm74.686 30.847c13.654-3.2534 23.604-16.978 22.671-30.958 1.0128-3.9883-0.91687-13.028-3.6941-13.006 0.69738 3.4709-3.399 4.0289-2.1167 7.634 1.3374 6.6075-4.4059 11.768-10.845 10.205-3.3756-0.29799-5.98-0.0911-6.846 3.7769-4.5311 5.1902-12.824 1.7946-14.553-3.7042-4.7796-0.50341-10.805 1.421-14.081-3.1083-2.5486-3.044-0.04444-8.3139-2.0085-10.911-2.5291-1.786-0.31702-7.0177-3.3817-2.0608-3.2884 5.7116-1.4918 13.44-0.94357 19.837 3.5078 15.527 20.117 26.554 35.798 22.296zm-7.3548-9.1702c-5.0938 1.3175-6.2861-6.3563-0.76842-4.3351 3.9659 3.2644 12.465-6.2637 12.3 0.57097-2.5578 3.478-7.5017 4.2627-11.532 3.7641zm2.7914-14.335c5.3523-3.564-3.2668-8.634-0.78615-14.1 1.0061-2.6808-1.4921-3.9665-3.1543-2.6486-0.34429 4.4082 0.95347 9.7584-2.9664 12.908-1.0823 3.4101 4.4521 5.5104 6.9069 3.8409zm-9.7607-8.3766c3.0703-6.3113-0.14243-13.392-7.9475-10.916-4.1592-0.68407-3.365 2.8166-3.3341 5.5584-2.0631 8.4215 6.3371 5.7066 11.282 5.358zm-6.8997-3.4178c-6.4881-4.3025 5.7976-10.162 4.8586-2.1307-0.60239 1.9349-3.0033 3.3614-4.8586 2.1307zm32.3 3.4177c1.2537-3.0921 0.36903-6.8356 0.62462-10.21-3.9328-1.0077-13.201-2.4907-12.008 3.9947-1.877 9.1216 5.3449 6.8068 11.384 6.2155zm-6.8997-3.4177c-6.6558-4.635 6.6148-9.9049 4.7032-1.729-0.79561 1.7085-2.9904 2.8824-4.7032 1.729zm-34.619-10.633c6.8521-3.4963 14.498-2.2526 21.471-0.17722 7.1926 0.76603 13.978-4.1854 21.17-1.2726 2.5561 0.53376 8.9621 3.9975 4.1972-0.57935-3.704-2.3756-7.4406-8.3225-9.9287-9.9166-6.15 5.898-15.242 3.5343-22.896 3.9718-4.3366-0.95927-6.6174-3.093-9.3737 1.8596-0.63237 0.36041-10.706 9.3646-4.6396 6.1144z" fill="#eaad9e"/>
  <path d="m29.427 106.58v-67.733h135.47v135.47h-135.47v-67.733zm106.02 56.426c-0.43301-0.26317 0.35727 3.516 0 0zm-76.472-0.5328c-0.41229 0.0166 0.24421 2.3416 0 0zm76.193-1.4552c-0.45897-0.0856 0.27775 1.768 0 0zm-75.93 0.0165c-0.45363-0.45492 0.22842 1.4792 0 0zm75.671-1.0583c-0.45365-0.4549 0.22844 1.4792 0 0zm-33.452-1.7342c7.0521-2.451 5.0351-10.967 7.0033-15.867-0.88431-1.4072-1.8695-6.2397 1.0156-6.6589 7.4212-3.5494 13.361-10.11 15.984-17.925 6.4099-0.97203 12.174-7.7989 8.7268-14.336-2.4272-4.8406-9.7189-4.4677-7.6406-11.386 0.0171-3.9971-4.0468-12.782-5.043-12.926 1.7281 2.7968 8.0536 14.351 0.42452 11.039-3.9346-3.2198-8.5291-7.7677-11.117-11.045-5.6515 5.7723-14.068 4.0533-21.297 4.3931-4.728 0.82309-7.9388-5.0525-10.736 0.98106-1.7511 1.9689-11.096 10.503-9.8946 3.6534-0.15362-2.4725 6.2192-13.229 1.9069-6.0297-4.9374 4.8105 0.02342 15.027-6.6441 17.209-6.8513 3.1643-6.4795 14.184 0.5779 16.889 5.0772-0.26116 4.9322 4.8572 7.1875 8.1012 3.4614 5.4805 8.7244 9.6749 14.662 12.201-0.07822 4.2914-0.46635 6.5134 0.30531 10.572-1.2307 7.0989 6.0104 14.017 13.01 11.673l0.82726-0.24364zm-5.8664-30.352c-5.8842-0.35468-2.3808-6.0482 1.8029-3.6176 3.445 2.1866 11.96-6.3297 10.436 0.56833-3.0471 3.263-8.0636 3.7771-12.239 3.0493zm-17.353-17.163c-5.6229-1.9079-4.5378-8.4195-4.6274-13.129-3.54-1.1354-2.6413-6.1395 0.99709-6.2952 6.9463-3.376 14.445-1.0947 21.472 0.19199 7.1072 0.04752 14.024-3.7874 21.178-1.0743 3.7274 0.04168 8.317 4.0784 3.9902 6.8998-1.3679 2.4476 0.0823 6.4649-1.008 9.3321-2.9864 6.4579-12.105 4.4483-17.758 3.6504-4.7294-2.9074-3.1346-8.9627-3.6037-13.644-2.9196-0.64161-4.1398 0.46532-3.538 3.447 0.9065 5.515-2.0225 12.293-8.6742 10.943-2.8052-0.0426-5.6506 0.13312-8.4282-0.32101zm11.764-5.3811c0.38715-2.7923 1.2989-7.8409-0.32588-9.96-3.1134-0.8016-10.198-2.4056-11.303 1.0292 0.46123 3.0747-1.3342 7.7969 1.4799 9.6356h9.5942c0.18481-0.23495 0.36962-0.4699 0.55443-0.70485zm-7.8185-3.8989c-4.9431-6.7123 9.4972-6.7625 4.5508 0-1.0242 1.2742-3.5266 1.2742-4.5508 0zm33.212 3.9066c0.6894-2.9988 0.93048-7.4526 0.17776-10.185-3.49-0.73118-9.6409-1.7139-11.68 1.1975 0.41953 3.0916-1.4848 7.83 1.3598 9.6848h9.5942c0.18279-0.23239 0.36558-0.46479 0.54837-0.69718zm-7.8125-3.9066c-4.9382-6.7366 9.489-6.7366 4.5508 0-1.0242 1.2742-3.5266 1.2742-4.5508 0zm26.649 56.548c-0.96393-1.2109 0.71817 1.9521 0 0zm-72.963-2.0704c1.7074-4.2977-2.9956 5.6712 0 0zm72.282 0.42146c-1.7495-2.885 1.2759 3.174 0 0zm-1.1222-1.8944c-3.0404-4.1688 1.2573 2.6316 0 0zm-65.433-5.1192c2.6014-2.663-8.3285 7.6621-2.0614 1.9014 0.67377-0.64758 1.3403-1.3055 2.0614-1.9014zm62.971 2.0942c-3.8265-3.6011 3.2827 3.6288 0 0zm-1.9917-1.7046c-1.881-1.6827-5.9876-3.3938-1.5354-0.84553 0.0231-0.19924 2.9025 2.3634 1.5354 0.84553zm-57.652-2.3325c-3.1804 1.0756-2.826 1.9143 0 0zm1.1708-0.32852c0.90338-0.92168-2.135 0.98626 0 0zm51.858 0c-2.0646-0.94931 0.8158 0.88639 0 0zm-49.02-0.9536c-0.97406-0.30008-0.48607 0.46075 0 0zm46.302 0c-0.97406-0.30009-0.48607 0.46075 0 0zm-43.188-0.89848c1.1951-0.78355-3.0236 0.78658 0 0zm40.217 0c-2.841-0.77438 1.0506 0.78949 0 0zm-36.777-1.0583c1.1951-0.78356-3.0236 0.7866 0 0zm33.663 0.10473c-0.97407-0.30009-0.48605 0.46075 0 0zm-30.692-1.0583c-0.97408-0.30008-0.48604 0.46075 0 0zm27.252 0c-0.97408-0.30008-0.48604 0.46075 0 0zm-37.35-65.37c1.7697-2.9415-2.7662 3.445 0 0zm46.947-0.17829c-1.4122-1.6508-1.2638-0.73498 0 0zm-44.45-2.6868c5.4007-5.8448-5.8203 5.6326 0 0zm43.392 1.3808c-2.5198-2.5857-4.3107-4.1664-0.83919-0.65693l0.52527 0.51667zm-4.0515-3.8427c-2.585-3.9212 1.6702 2.914 0 0zm-36.661 0.01448c0.91327-1.2999-1.6249 1.5802 0 0zm36.133-3.9637c-0.45407-0.30758 0.32825 2.1756 0 0zm-26.713-1.8185c-0.97407-0.30008-0.48606 0.46079 0 0zm2.2545-0.27996c-1.6464-0.26247-0.02052 0.45779 0 0zm24.192-0.40355c-0.45365-0.45492 0.22843 1.4792 0 0zm-21.546 0.13896c-1.6464-0.26247-0.02052 0.45779 0 0zm2.6458-0.26458c-1.6464-0.26247-0.02051 0.45779 0 0zm2.3812-0.26458c-1.6464-0.26247-0.02052 0.45779 0 0zm2.6458-0.26458c-1.6465-0.26246-0.0205 0.45779 0 0zm2.6458-0.26458c-1.6464-0.26246-0.0205 0.45778 0 0zm2.6458-0.26458c-1.6464-0.26246-0.0205 0.45778 0 0zm2.6458-0.26458c-1.6464-0.26246-0.0205 0.45778 0 0zm2.6458-0.26458c-1.6464-0.26246-0.0205 0.45778 0 0z" fill="#fdca64"/>
  <path d="m58.901 173.64c-0.3353-7.7066-0.50008-16.622 5.8082-22.217 5.6555-5.3487 13.854-6.2521 20.965-8.6399 2.147 4.1155 0.30281 14.25 8.2272 15.932 7.1248 2.5807 14.802-4.2462 13.54-11.597-1.1679-8.9911 10.1-0.39876 14.76-0.1583 8.6249 2.5566 13.92 11.586 13.231 20.349 0.6596 4.0553 0.72527 8.5428-4.3964 7.0084h-71.965l-0.09327-0.37163zm36.693-45.746c-5.8842-0.35468-2.3808-6.0482 1.8029-3.6176 3.445 2.1866 11.96-6.3297 10.436 0.56833-3.0471 3.263-8.0636 3.7771-12.239 3.0493zm-17.353-17.163c-5.6229-1.9079-4.5378-8.4195-4.6274-13.129-3.54-1.1354-2.6413-6.1395 0.99709-6.2952 6.9463-3.376 14.445-1.0947 21.472 0.19199 7.1072 0.04752 14.024-3.7874 21.178-1.0743 3.7274 0.04168 8.317 4.0784 3.9902 6.8998-1.3679 2.4476 0.0823 6.4649-1.008 9.3321-2.9864 6.4579-12.105 4.4483-17.758 3.6504-4.7294-2.9074-3.1346-8.9627-3.6037-13.644-2.9196-0.64161-4.1398 0.46532-3.538 3.447 0.9065 5.515-2.0225 12.293-8.6742 10.943-2.8052-0.0426-5.6506 0.13312-8.4282-0.32101zm11.764-5.3811c0.38715-2.7923 1.2989-7.8409-0.32588-9.96-3.1134-0.8016-10.198-2.4056-11.303 1.0292 0.46123 3.0747-1.3342 7.7969 1.4799 9.6356h9.5942zm-7.8185-3.8989c-4.9431-6.7123 9.4972-6.7625 4.5508 0-1.0242 1.2742-3.5266 1.2742-4.5508 0zm33.212 3.9066c0.6894-2.9988 0.93047-7.4526 0.17776-10.185-3.49-0.73118-9.6409-1.7139-11.68 1.1975 0.41953 3.0916-1.4848 7.83 1.3598 9.6848h9.5942zm-7.8125-3.9066c-4.9382-6.7366 9.489-6.7366 4.5508 0-1.0242 1.2742-3.5266 1.2742-4.5508 0zm-38.872-12.253c1.3058-8.6386 7.6654-15.305 14.643-19.987 5.6064-4.1156 13.332-2.6305 19.873-3.9721 3.3494 0.93215 10.889-3.8074 11.415 1.1489 0.27869 2.8226-0.64791 6.0611 2.3686 7.6564 4.7087 4.3442 8.4092 10.566 9.0822 16.997-5.5705 0.43287-9.2703-6.0141-13.106-9.2686-3.5689-4.3152-7.3007 4.1605-12.377 2.0852-5.5202-0.21409-12.93 1.9429-18.004-1.9253-3.8266 2.5834-7.5141 7.9454-12.387 8.7761-1.5351 0.12369-1.9958 0.1712-1.5078-1.511z" fill="#aa8ca1"/>
  <path d="m59.133 168.03c-0.90667-8.5974 3.7869-17.871 12.328-20.582 4.6646-0.82315 11.438-5.3847 15.011-3.6367-0.77431 6.5034 1.6566 14.718 9.2264 15.53 7.3913 1.2844 13.369-6.295 12.032-13.292-0.058-6.9482 9.8416 1.0316 14.025 1.0182 9.1059 2.3365 14.419 12.074 13.435 21.094-0.46809 1.7997 1.1402 5.6321-0.63556 6.1516h-75.55c0.04248-2.0946 0.08495-4.1892 0.12743-6.2838zm36.076-40.43c-6.0616-1.361-0.23101-5.1014 3.0976-3.0257 3.0125 1.2227 11.812-5.9257 8.9205 0.61664-3.2306 2.9141-7.9397 3.2334-12.018 2.4091zm-17.501-17.282c-5.9965-3.3712-2.5802-11.541-5.9473-16.053 0.92388-4.1603 8.3684-4.2424 12.171-4.4607 6.5159-0.2902 12.886 3.9876 19.359 0.97459 6.3319-2.0584 13.426-1.0696 19.27 2.0144-0.34563 4.8179-3.2374 8.3935-2.5665 13.89-3.3224 6.0923-13.553 4.9889-18.795 2.3064-2.9319-3.3637-1.5867-8.2099-2.0539-12.332-2.3113-0.09704-5.0035-0.58564-4.0432 2.6811 0.46058 5.0959-0.74503 12.473-7.5569 11.45-3.2592-0.12728-6.6666 0.40387-9.837-0.47101zm12.228-4.641c1.5934-1.5512 0.36083-4.3998 0.74236-6.5073 1.0082-3.4581-1.3723-4.7154-4.5979-4.8391-6.3367-1.7175-9.4785 2.3933-7.8799 8.267-0.95702 5.9312 7.8432 3.306 11.224 3.4419l0.51149-0.36253zm-6.5089-3.6827c-6.7126-3.6668 4.9942-9.3404 3.9513-2.0928-0.42278 1.6562-2.3255 2.7373-3.9513 2.0928zm31.909 3.6828c1.8004-2.3838 0.22812-6.3977 0.81761-9.2984-2.308-3.5797-8.7664-2.1338-12.511-0.77925v9.4394c2.78 2.3082 8.488 1.4067 11.693 0.63823zm-6.5089-3.6828c-6.7126-3.6668 4.9942-9.3405 3.9513-2.0928-0.42278 1.6562-2.3255 2.7373-3.9513 2.0928zm-22.911-18.93c-2.5361-1.7891-4.9656-2.739-8.1527-2.1773-3.6538 0.54018-7.0287-0.2235-2.9549-3.8006 4.8427-5.0939 10.444-10.78 18.021-10.503 7.0287-0.61345 14.043-1.7603 21.092-1.9224 1.7194 2.8132-1.0044 7.1542 2.3073 9.0515 4.0207 3.2397 7.8881 8.8278 0.0343 7.2019-3.9334 1.4846-4.7392-4.8823-7.992-0.21865-5.6299 3.8612-12.853 1.9802-19.243 2.5082-1.0378-0.02338-2.0801-0.0025-3.112-0.13994z" fill="#8e75a5"/>
  <path d="m59.253 172.27c0.09752-6.7711-0.39881-14.377 4.7831-19.611 5.2821-6.1441 13.968-6.7122 21.135-9.3708 2.355 3.2697 0.12459 12.356 6.4986 14.865 6.6063 4.1914 16.445-1.0103 16.195-8.9792-0.5554-4.4999 0.63701-7.6726 5.4206-4.659 6.9714 2.1148 15.146 3.8756 18.947 10.833 3.6888 5.6512 2.3588 12.613 2.9126 18.972h-75.957c0.02142-0.68351 0.04284-1.367 0.06426-2.0505zm36.7-44.622c-5.21 0.47485-3.3473-5.7651 1.0577-3.0663 3.2982 2.1993 12.774-6.0898 10.235 0.56822-3.1022 2.6727-7.3927 3.1464-11.292 2.4981zm-18.389-17.555c-4.8825-2.3574-3.4736-8.1072-3.6873-12.495-3.8457-1.0026-2.0256-6.348 1.6335-6.2979 7.1177-3.5413 14.448 0.0023 21.65 0.47048 7.2023-0.4682 14.532-4.0118 21.65-0.47048 3.6645-0.04713 5.4894 5.3032 1.6335 6.2979-0.0829 4.6822 1.0305 11.163-4.6857 12.94-5.6302 0.18068-15.206 2.3352-16.339-5.5313-0.81691-2.448 0.87077-7.3448-1.0409-8.6055-2.8901-0.69215-3.8288 0.62214-3.2982 3.4471 1.2558 6.1155-2.8268 12.675-9.6849 10.966-2.5898-0.16841-5.4299 0.5002-7.8311-0.72049zm12.489-4.2756c1.9131-5.1504 1.5889-13.572-6.2874-11.612-7.6044-2.5303-7.4344 10.458-3.1034 12.092 3.0862-0.15873 6.4612 0.54065 9.3908-0.47974zm-6.9788-4.1423c-6.0109-5.3874 7.86-7.1646 3.3167-0.43557-0.84341 0.83263-2.2762 1.1236-3.3167 0.43557zm32.379 4.1422c1.6671-5.0702 2.0824-14.245-6.2891-11.575-7.9386-2.3011-8.2166 14.37-0.47384 12.083 2.2084-0.21405 4.6969 0.43462 6.7629-0.50872zm-6.9788-4.1422c-6.0109-5.3874 7.86-7.1646 3.3168-0.43557-0.8434 0.83263-2.2762 1.1236-3.3168 0.43557zm-22.693-18.869c-4.7271-0.8543-5.4915-8.001-6.4617-9.7452 4.594-5.2129 11.168-6.6347 17.836-6.7585 5.2935 0.4171 13.134-3.1992 17.003-0.21124-0.25309 5.1167 2.8157 8.2196-2.2119 11.376-4.5488 5.3111-11.614 5.9471-18.14 5.486-2.6745-0.01185-5.3587 0.07199-8.0263-0.1473z" fill="#5944fd"/>
  <path d="m95.953 127.64c-5.21 0.47485-3.3473-5.7651 1.0577-3.0663 3.2982 2.1993 12.774-6.0898 10.235 0.56822-3.1022 2.6727-7.3927 3.1464-11.292 2.4981zm-18.389-17.555c-4.8825-2.3574-3.4736-8.1072-3.6873-12.495-3.8457-1.0026-2.0256-6.348 1.6335-6.2979 7.1177-3.5413 14.448 0.0023 21.65 0.47048 7.2023-0.4682 14.532-4.0118 21.65-0.47048 3.6645-0.04713 5.4894 5.3032 1.6335 6.2979-0.0829 4.6822 1.0305 11.163-4.6857 12.94-5.6302 0.18068-15.206 2.3352-16.339-5.5313-0.81691-2.448 0.87077-7.3448-1.0409-8.6055-2.8901-0.69215-3.8288 0.62214-3.2982 3.4471 1.2558 6.1155-2.8268 12.675-9.6849 10.966-2.5898-0.16841-5.4299 0.5002-7.8311-0.72049zm12.489-4.2756c1.9131-5.1504 1.5889-13.572-6.2874-11.612-7.6044-2.5303-7.4344 10.458-3.1034 12.092 3.0862-0.15873 6.4612 0.54065 9.3908-0.47974zm-6.9788-4.1423c-6.0109-5.3874 7.86-7.1646 3.3167-0.43557-0.84341 0.83263-2.2762 1.1236-3.3167 0.43557zm32.379 4.1422c1.6671-5.0702 2.0824-14.245-6.2891-11.575-7.9386-2.3011-8.2166 14.37-0.47384 12.083 2.2084-0.21405 4.6969 0.43462 6.7629-0.50872zm-6.9788-4.1422c-6.0109-5.3874 7.86-7.1646 3.3168-0.43557-0.8434 0.83263-2.2762 1.1236-3.3168 0.43557zm-22.693-18.869c-4.7271-0.8543-5.4915-8.001-6.4617-9.7452 4.594-5.2129 11.168-6.6347 17.836-6.7585 5.2935 0.4171 13.134-3.1992 17.003-0.21124-0.25309 5.1167 2.8157 8.2196-2.2119 11.376-4.5488 5.3111-11.614 5.9471-18.14 5.486-2.6745-0.01185-5.3587 0.07199-8.0263-0.1473z" fill="#675d95"/>
  <path d="m96.102 127.47c-5.7161-0.41998-2.4254-4.8238 1.6909-2.6841 3.1605 1.6396 12.449-5.878 8.8287 0.60017-2.9953 2.1819-6.9286 2.7742-10.52 2.0839zm-18.124-17.284c-5.0997-2.2357-3.5377-8.2675-3.9688-12.726-4.1229-2.0481-1.4594-6.1896 2.2862-6.2909 6.9536-2.8579 13.945 0.34684 20.865 0.86382 6.9202-0.51697 13.911-3.7218 20.865-0.86382 3.725 0.11483 6.4078 4.2379 2.2862 6.2909-0.43851 4.466 1.1415 10.555-4.0264 12.737-5.7164 0.26927-15.975 2.6133-16.694-5.7005-0.06665-3.2692 1.1499-11.251-4.5337-7.899 0.50382 6.4065-0.5463 16.026-9.5456 13.963-2.5048-0.0349-5.0626 0.0956-7.5335-0.37414zm11.612-3.8545c3.7586-5.0241 1.58-14.527-6.3923-12.355-7.3408-2.2089-7.7327 13.12-1.3675 12.548 2.5817 0.0253 5.1952 0.14417 7.7598-0.19363zm25.4 0c3.6735-5.1734 1.8522-15.208-6.5819-12.288-6.9818-1.444-7.5327 13.052-1.1779 12.482 2.5817 0.0253 5.1952 0.14417 7.7598-0.19363z" fill="#2a1449"/>
 </g>
</svg>
